<svg id="discord-icon-svgrepo-com" xmlns="http://www.w3.org/2000/svg" width="58.798" height="45.516" viewBox="0 0 58.798 45.516">
  <path id="Path_11" data-name="Path 11" d="M49.808,3.812A47.889,47.889,0,0,0,37.677,0a35.568,35.568,0,0,0-1.554,3.226,44.541,44.541,0,0,0-13.444,0A34.484,34.484,0,0,0,21.107,0,47.73,47.73,0,0,0,8.967,3.821,50.875,50.875,0,0,0,.25,37.887a48.5,48.5,0,0,0,14.878,7.624,37,37,0,0,0,3.186-5.248A31.331,31.331,0,0,1,13.3,37.821c.421-.312.832-.638,1.23-.973a34.286,34.286,0,0,0,29.746,0c.4.335.814.661,1.23.973a31.253,31.253,0,0,1-5.027,2.447,36.838,36.838,0,0,0,3.186,5.248,48.4,48.4,0,0,0,14.887-7.628A50.825,50.825,0,0,0,49.808,3.812ZM19.632,31.029c-2.9,0-5.286-2.711-5.286-6.013S16.677,19,19.632,19s5.337,2.711,5.286,6.018C24.922,28.317,22.587,31.029,19.632,31.029Zm19.535,0c-2.9,0-5.286-2.711-5.286-6.013S36.211,19,39.166,19s5.337,2.711,5.286,6.018C44.452,28.317,42.122,31.029,39.166,31.029Z" fill="#5865f2"/>
</svg>