<svg xmlns="http://www.w3.org/2000/svg" width="56.008" height="45.516" viewBox="0 0 56.008 45.516">
  <path id="iconmonstr-twitter-1" d="M56.008,7.636a22.941,22.941,0,0,1-6.6,1.809,11.509,11.509,0,0,0,5.052-6.357,23.018,23.018,0,0,1-7.3,2.789A11.5,11.5,0,0,0,27.581,16.355,32.62,32.62,0,0,1,3.9,4.351,11.506,11.506,0,0,0,7.454,19.692a11.442,11.442,0,0,1-5.2-1.438,11.5,11.5,0,0,0,9.216,11.412,11.517,11.517,0,0,1-5.19.2,11.5,11.5,0,0,0,10.735,7.979A23.1,23.1,0,0,1,0,42.6a32.529,32.529,0,0,0,17.614,5.162c21.334,0,33.388-18.018,32.66-34.179a23.394,23.394,0,0,0,5.734-5.948Z" transform="translate(0 -2.248)" fill="#1da1f2"/>
</svg>
