<svg xmlns="http://www.w3.org/2000/svg" width="45.516" height="45.516" viewBox="0 0 45.516 45.516">
  <g id="icons8-linkedin" transform="translate(-6 -6)">
    <path id="Path_12" data-name="Path 12" d="M51.516,45.194a6.321,6.321,0,0,1-6.322,6.322H12.322A6.321,6.321,0,0,1,6,45.194V12.322A6.321,6.321,0,0,1,12.322,6H45.194a6.321,6.321,0,0,1,6.322,6.322Z" fill="#0078d4"/>
    <path id="Path_13" data-name="Path 13" d="M35.022,43.872V31.1c0-2.135-1.035-3.411-2.771-3.411A2.363,2.363,0,0,0,30,29.417a8.483,8.483,0,0,0-.039,1.408l0,13.047h-8.85V19.85h8.85v1.341a8.142,8.142,0,0,1,4.726-1.341c5.749,0,9.18,3.911,9.18,10.461V43.872ZM11,43.872V19.85h4.371A4.254,4.254,0,0,1,11,15.424,4.288,4.288,0,0,1,15.443,11a4.271,4.271,0,0,1,4.407,4.4,4.3,4.3,0,0,1-4.444,4.452H19.85V43.872Z" transform="translate(1.322 1.322)" opacity="0.05"/>
    <path id="Path_14" data-name="Path 14" d="M35.522,43.108V30.972c0-2.495-1.3-4.043-3.4-4.043a3.014,3.014,0,0,0-2.836,2.12,7.978,7.978,0,0,0-.085,1.676l0,12.383H21.615V20.35H29.2v2.071a7.034,7.034,0,0,1,5.358-2.071c5.352,0,8.548,3.674,8.548,9.829V43.108Zm-24.022,0V20.35h7.586V43.108Zm3.739-24.022A3.643,3.643,0,0,1,11.5,15.292,3.677,3.677,0,0,1,15.311,11.5a3.663,3.663,0,0,1,3.775,3.779,3.681,3.681,0,0,1-3.812,3.807Z" transform="translate(1.454 1.454)" opacity="0.07"/>
    <path id="Path_15" data-name="Path 15" d="M12,20.85h6.322V42.344H12Zm3.142-2.529h-.035A3.025,3.025,0,0,1,12,15.16,3.041,3.041,0,0,1,15.179,12a3.031,3.031,0,0,1,3.143,3.16A3.044,3.044,0,0,1,15.142,18.322Zm27.2,24.022H36.022V30.84c0-2.779-1.549-4.675-4.036-4.675a3.624,3.624,0,0,0-3.423,2.516,9.119,9.119,0,0,0-.128,2.285V42.344H22.115V20.85h6.322v3.307a6.4,6.4,0,0,1,5.99-3.307c4.524,0,7.916,2.845,7.916,9.2v12.3Z" transform="translate(1.586 1.586)" fill="#fff"/>
  </g>
</svg>