<svg xmlns="http://www.w3.org/2000/svg" width="67" height="107" viewBox="0 0 67 107">
  <g id="Group_1" data-name="Group 1" transform="translate(-339 -732)">
    <g id="Rectangle_3" data-name="Rectangle 3" transform="translate(339 732)" fill="none" stroke="#fff" stroke-width="8">
      <path d="M32.515,0H33.5A33.5,33.5,0,0,1,67,33.5v40A33.5,33.5,0,0,1,33.5,107h0A33.5,33.5,0,0,1,0,73.5V32.515A32.515,32.515,0,0,1,32.515,0Z" stroke="none"/>
      <path d="M32.517,4H33.5A29.5,29.5,0,0,1,63,33.5v40A29.5,29.5,0,0,1,33.5,103h0A29.5,29.5,0,0,1,4,73.5V32.517A28.517,28.517,0,0,1,32.517,4Z" fill="none"/>
    </g>
    <g id="Ellipse_1" data-name="Ellipse 1" transform="translate(365 761)" fill="#fff" stroke="#707070" stroke-width="1">
      <ellipse cx="7" cy="12.5" rx="7" ry="12.5" stroke="none"/>
      <ellipse cx="7" cy="12.5" rx="6.5" ry="12" fill="none"/>
    </g>
  </g>
</svg>
