<svg xmlns="http://www.w3.org/2000/svg" xmlns:xlink="http://www.w3.org/1999/xlink" width="1036" height="686.5" viewBox="0 0 1036 686.5">
  <defs>
    <filter id="Rectangle_19" x="0" y="59.5" width="482" height="614" filterUnits="userSpaceOnUse">
      <feOffset dy="3" input="SourceAlpha"/>
      <feGaussianBlur stdDeviation="7.5" result="blur"/>
      <feFlood flood-opacity="0.161"/>
      <feComposite operator="in" in2="blur"/>
      <feComposite in="SourceGraphic"/>
    </filter>
    <filter id="Rectangle_20" x="554" y="72.5" width="482" height="614" filterUnits="userSpaceOnUse">
      <feOffset dy="3" input="SourceAlpha"/>
      <feGaussianBlur stdDeviation="7.5" result="blur-2"/>
      <feFlood flood-opacity="0.161"/>
      <feComposite operator="in" in2="blur-2"/>
      <feComposite in="SourceGraphic"/>
    </filter>
  </defs>
  <g id="Group_7" data-name="Group 7" transform="translate(-219.5 -2142)">
    <g transform="matrix(1, 0, 0, 1, 219.5, 2142)" filter="url(#Rectangle_19)">
      <rect id="Rectangle_19-2" data-name="Rectangle 19" width="437" height="569" rx="64" transform="translate(22.5 79)" fill="#fff"/>
    </g>
    <g transform="matrix(1, 0, 0, 1, 219.5, 2142)" filter="url(#Rectangle_20)">
      <rect id="Rectangle_20-2" data-name="Rectangle 20" width="437" height="569" rx="64" transform="translate(576.5 92)" fill="#fff"/>
    </g>
    <text id="DEVELOPMENT" transform="translate(316 2180)" fill="#fcb2f3" font-size="40" font-family="SF Pro" font-weight="700"><tspan x="0" y="0">DEVELOPMENT</tspan></text>
    <text id="DESIGN" transform="translate(952 2180)" fill="#fcb2f3" font-size="40" font-family="SF Pro" font-weight="700"><tspan x="0" y="0">DESIGN</tspan></text>
    <g id="html-1" transform="translate(398.5 2311)">
      <path id="Path_1" data-name="Path 1" d="M10.383,126.894,0,0,124,.255,113.021,126.894,62.468,141.532Z" fill="#e34f26"/>
      <path id="Path_2" data-name="Path 2" d="M62.468,129.277V12.085l51.064.17-9.106,104.851Z" fill="#ef652a"/>
      <path id="Path_3" data-name="Path 3" d="M99.49,41.362l1.446-15.49H22.383l4.34,47.49H80.936L78.81,93.617,61.448,98.3,43.831,93.191l-.936-12.085H27.319l2.128,24.681,32,8.936L93.7,105.787l4.34-48.17H41.107L39.49,41.362Z" fill="#fff"/>
    </g>
    <g id="css-3" transform="translate(396.5 2573.532)">
      <path id="Path_4" data-name="Path 4" d="M10.383,126.892,0,0,124,.255,113.021,126.892,62.468,141.53Z" fill="#1b73ba"/>
      <path id="Path_5" data-name="Path 5" d="M62.468,129.275V12.085l51.064.17L104.426,117.1Z" fill="#1c88c7"/>
      <path id="Path_6" data-name="Path 6" d="M100.851,27.064H22.3l2.128,15.318H61.7L25.022,58.127l2.127,14.808H81.192l-1.958,20.68-18.3,3.575L44.341,92.935,43.064,81.19H27.83l2.042,24.426,32.681,9.106,31.32-9.957,4-47.745H64.765L100.85,42.042Z" fill="#fff"/>
    </g>
    <g id="adobe-xd-2" transform="translate(952 2311)">
      <path id="Path_7" data-name="Path 7" d="M26.031,0h94.938A26.009,26.009,0,0,1,147,26.031v91.263a26.009,26.009,0,0,1-26.031,26.031H26.031A26.009,26.009,0,0,1,0,117.294V26.031A26.009,26.009,0,0,1,26.031,0Z" fill="#470137"/>
      <g id="Group_2" data-name="Group 2" transform="translate(21.413 31.412)">
        <path id="Path_8" data-name="Path 8" d="M90.845,57.541,72.47,87.86l19.6,32.156a1.054,1.054,0,0,1,.122.735c-.061.245-.306.061-.674.122H77.492c-.98,0-1.654-.061-2.083-.674-1.286-2.572-2.634-5.084-3.92-7.656-1.286-2.511-2.695-5.084-4.165-7.717s-2.94-5.268-4.41-7.963h-.122c-1.286,2.634-2.7,5.268-4.1,7.9s-2.818,5.268-4.165,7.84c-1.409,2.572-2.817,5.206-4.226,7.717-.245.613-.735.674-1.409.674H35.414c-.245,0-.429.122-.429-.184a.851.851,0,0,1,.123-.674L54.156,88.9,35.6,57.48c-.184-.245-.245-.49-.123-.613a.71.71,0,0,1,.612-.245h13.9a3.615,3.615,0,0,1,.857.123,1.737,1.737,0,0,1,.613.551c1.164,2.634,2.511,5.268,3.92,7.9,1.47,2.634,2.879,5.206,4.41,7.779,1.47,2.572,2.817,5.145,4.1,7.779h.123c1.286-2.695,2.634-5.329,3.981-7.9s2.756-5.145,4.165-7.717,2.756-5.206,4.1-7.717a1.042,1.042,0,0,1,.368-.613,1.168,1.168,0,0,1,.8-.122H90.355a.564.564,0,0,1,.674.429c.061.061-.061.306-.184.429Zm28.3,64.619a30.451,30.451,0,0,1-13.169-2.756,21.354,21.354,0,0,1-9.249-8.33c-2.266-3.736-3.369-8.391-3.369-13.965a25.156,25.156,0,0,1,3.369-12.924,25.436,25.436,0,0,1,9.739-9.494c4.288-2.389,9.433-3.553,15.5-3.553a10.938,10.938,0,0,1,1.286.061c.551.061,1.164.061,1.9.123V51.968c0-.429.184-.674.612-.674h12.434a.549.549,0,0,1,.613.429v58.433c0,1.1.061,2.327.122,3.675.122,1.286.184,2.511.245,3.553a1,1,0,0,1-.613.98,46.778,46.778,0,0,1-9.984,2.94,54.028,54.028,0,0,1-9.433.857Zm6-12.25V82.96a15.667,15.667,0,0,0-1.654-.306c-.674-.061-1.347-.122-2.021-.122a15.1,15.1,0,0,0-6.921,1.592,13.731,13.731,0,0,0-5.206,4.533,13.577,13.577,0,0,0-2.021,7.779,17.069,17.069,0,0,0,1.041,6.309,11.971,11.971,0,0,0,2.756,4.349,10.582,10.582,0,0,0,4.165,2.45,16.033,16.033,0,0,0,5.084.8c.919,0,1.776-.061,2.572-.123a5.357,5.357,0,0,0,2.205-.306Z" transform="translate(-34.961 -51.284)" fill="#ff61f6"/>
      </g>
    </g>
    <g id="adobe-photoshop-2" transform="translate(951.788 2571.53)">
      <path id="Path_9" data-name="Path 9" d="M26.069,0h95.075a26.047,26.047,0,0,1,26.069,26.069v91.394a26.047,26.047,0,0,1-26.069,26.069H26.069A26.047,26.047,0,0,1,0,117.463V26.069A26.047,26.047,0,0,1,26.069,0Z" fill="#001e36"/>
      <g id="Group_3" data-name="Group 3" transform="translate(33.123 36.496)">
        <path id="Path_10" data-name="Path 10" d="M54,123.66V60.543c0-.429.184-.675.613-.675,1.043,0,2.024,0,3.435-.061,1.472-.061,3.006-.061,4.662-.123s3.435-.061,5.336-.123,3.742-.061,5.582-.061a36.066,36.066,0,0,1,12.636,1.9,21.9,21.9,0,0,1,8.219,5.03,19.53,19.53,0,0,1,4.478,6.993,23.477,23.477,0,0,1,1.411,7.974q0,7.913-3.68,13.065a21.015,21.015,0,0,1-9.875,7.483,39.753,39.753,0,0,1-13.8,2.086c-1.472,0-2.454,0-3.067-.061s-1.472-.061-2.638-.061V123.6a.763.763,0,0,1-.675.859h-11.9c-.491,0-.736-.245-.736-.8ZM67.372,71.706v20.61c.859.061,1.656.123,2.392.123h3.251a22.912,22.912,0,0,0,7.054-1.1,10.548,10.548,0,0,0,5.03-3.251A9.478,9.478,0,0,0,87,81.766a10.1,10.1,0,0,0-1.411-5.459,8.9,8.9,0,0,0-4.294-3.5,18,18,0,0,0-7.238-1.227c-1.595,0-3.006,0-4.171.061a14.045,14.045,0,0,0-2.515.061Zm71.275,16.868a21.71,21.71,0,0,0-5.888-2.086,32.335,32.335,0,0,0-6.87-.8,12.35,12.35,0,0,0-3.68.429,3.15,3.15,0,0,0-1.9,1.227A3.251,3.251,0,0,0,119.816,89a2.728,2.728,0,0,0,.613,1.595,6.922,6.922,0,0,0,2.086,1.656c1.411.736,2.883,1.411,4.355,2.024a44.428,44.428,0,0,1,9.446,4.478,14.272,14.272,0,0,1,4.846,5.091,13.242,13.242,0,0,1,1.411,6.318,14.272,14.272,0,0,1-2.392,8.158,15.371,15.371,0,0,1-6.87,5.459,28.1,28.1,0,0,1-11.1,1.963,42.253,42.253,0,0,1-8.342-.8,24.743,24.743,0,0,1-6.257-1.963,1.206,1.206,0,0,1-.675-1.165V111.147a.666.666,0,0,1,.245-.552.467.467,0,0,1,.552.061,26.257,26.257,0,0,0,7.606,3.006,28.556,28.556,0,0,0,7.238.92,11.708,11.708,0,0,0,5.091-.859,2.849,2.849,0,0,0,1.656-2.576,3.25,3.25,0,0,0-1.472-2.454,26.014,26.014,0,0,0-6.011-2.883,37.529,37.529,0,0,1-8.71-4.416,15.882,15.882,0,0,1-4.662-5.214,13.162,13.162,0,0,1-1.411-6.257,14.427,14.427,0,0,1,2.086-7.422,15.12,15.12,0,0,1,6.441-5.643,23.786,23.786,0,0,1,10.857-2.147,52.88,52.88,0,0,1,7.606.552,21.582,21.582,0,0,1,5.275,1.411,1.078,1.078,0,0,1,.613.552,3.079,3.079,0,0,1,.123.736v10a.755.755,0,0,1-.307.613,1.634,1.634,0,0,1-1.1,0Z" transform="translate(-54 -59.5)" fill="#31a8ff"/>
      </g>
    </g>
  </g>
</svg>
